<svg width="77" height="72" viewBox="0 0 77 72" fill="none" xmlns="http://www.w3.org/2000/svg">
<ellipse cx="38.5" cy="36" rx="38.5" ry="36" fill="white"/>
<ellipse cx="38.8774" cy="35.6364" rx="32.8382" ry="30.5455" fill="#71D7D9"/>
<path d="M5.3986 52.681L10.7039 49.9471C17.9213 46.228 25.7819 43.9173 33.8659 43.1385L35.442 42.9866C38.8059 42.6625 42.1947 42.6889 45.5538 43.0652V43.0652C52.9095 43.8892 59.9827 46.3754 66.2382 50.3357L69.9427 52.681" stroke="white" stroke-width="7"/>
<ellipse cx="38.8774" cy="22.5454" rx="12.4559" ry="10.9091" fill="white"/>
<ellipse cx="38.8774" cy="22.5454" rx="8.68137" ry="7.27273" fill="white"/>
<path d="M66.8089 52.7273C66.8089 56.9447 53.9755 70.1818 38.8772 66.1818C26.1611 66.1818 20.7598 64.7273 12.0785 58.5454C5.28439 48 26.1611 44.7273 38.8772 44.7273C51.5933 44.7273 66.8089 48.5098 66.8089 52.7273Z" fill="white"/>
</svg>
