<svg width="373" height="100" viewBox="0 0 373 100" fill="none" xmlns="http://www.w3.org/2000/svg">
<g clip-path="url(#clip0_68_5)">
<path d="M41.5548 33.6554C43.1053 23.6693 51.703 16.3035 61.8089 16.3035H414.525C427.137 16.3035 438.217 24.675 441.662 36.8075C442.374 39.3143 442.735 41.9078 442.735 44.5138V45.2828C442.735 55.2571 438.321 64.72 430.679 71.1294L423.011 77.56C430.778 71.4605 434.111 61.2863 431.459 51.7735L424.43 26.5611C421.067 14.5014 407.666 8.3631 396.338 13.6939C393.807 14.8851 391.056 15.5382 388.26 15.6118L362 16.3035C363.333 16.3035 364.368 17.4635 364.218 18.7875L360.439 52.0342C359.652 58.9598 355.052 64.861 348.528 67.3153C345.411 68.488 342.036 68.8006 338.756 68.2204L326.748 66.0961L319.654 64.7899C314.394 63.8215 308.98 64.1015 303.848 65.6074C299.621 66.8478 295.674 68.8942 292.224 71.6336L289.739 73.6061C288.179 74.8453 286.439 75.8406 284.58 76.558L283.241 77.0748C278.994 78.7136 274.257 78.5143 270.163 76.5246L268.365 75.6511C264.702 73.8708 260.402 73.9796 256.833 75.9431C254.383 77.291 251.553 77.7819 248.793 77.3377L241.123 76.1038C238.528 75.6863 235.989 74.979 233.552 73.9952L226.173 71.0163C218.197 67.7964 209.498 66.7984 201 68.1283L200.733 68.1701C196.759 68.7919 192.883 69.9256 189.201 71.5427L184.65 73.541C181.745 74.8168 178.607 75.4756 175.434 75.4756H168.207C165.094 75.4756 162.185 77.0246 160.448 79.6075C159.368 81.2135 157.816 82.4447 156.006 83.1313L154.889 83.5551C151.179 84.9628 147.03 84.6133 143.608 82.6046L133.631 76.7494L129.038 73.9482C125.46 71.7664 121.338 70.6121 117.148 70.6121C114.547 70.6121 111.957 71.0594 109.508 71.9344L107.414 72.6823C102.455 74.4538 96.9675 73.9511 92.4129 71.3082L91.6655 70.8745C88.2931 68.9175 84.3119 68.289 80.5007 69.1117L79.6544 69.2943C75.7751 70.1317 71.7232 69.2527 68.5397 66.8831C67.8364 66.3596 67.1847 65.7701 66.5937 65.1226L63.0262 61.2143C60.638 58.5981 57.4524 56.8439 53.9646 56.2245C45.3575 54.696 39.5497 46.5694 40.891 37.9312L41.5548 33.6554Z" fill="#F7C90E"/>
<path d="M1.0348 7.35302C0.686005 12.0143 1.71789 16.6751 4.00165 20.7536L18.7527 47.0967C25.3719 58.9177 41.9347 60.0881 50.1505 49.3155L50.682 48.6187C51.7188 47.2592 52.9949 46.1001 54.4476 45.1985V45.1985C61.1066 41.0652 69.8596 43.1736 73.9064 49.8855L86.3641 70.5478C86.9929 71.5908 87.5285 72.6873 87.9644 73.8245L92.8727 86.6277C95.8539 94.4041 105.807 96.6119 111.797 90.8254V90.8254C112.39 90.2526 112.92 89.6184 113.379 88.9334L120.057 78.9597C121.067 77.4507 122.255 76.0688 123.596 74.8435L128.275 70.5665C135.218 64.2196 146.047 64.9233 152.111 72.1154V72.1154V72.1154C158.687 81.7066 172.074 83.5939 181.046 76.1949L183.48 74.1877C185.147 72.8132 187.001 71.6837 188.987 70.8336L193.228 69.018C199.963 66.1348 204.995 60.3094 206.868 53.2263L207.712 50.0335C209.074 44.8823 212.454 40.4627 217.055 37.776V37.776C224.308 33.5409 233.488 34.26 239.952 39.6221V39.6221C241.839 41.1871 243.422 43.0858 244.622 45.2234L246.897 49.2747C250.246 55.2415 256.556 58.9354 263.399 58.9354V58.9354C269.473 58.9354 275.178 56.0201 278.736 51.0978L283.922 43.9251C284.851 42.6389 285.637 41.2455 286.257 39.7847V39.7847C290.89 28.8787 303.608 23.8486 314.414 28.7112V28.7112C317.312 30.0153 319.902 31.984 321.946 34.4169V34.4169C329.966 43.9617 344.409 45.0995 353.683 36.7679L359.302 31.721C362.381 28.955 364.685 25.4336 365.987 21.5048L376.877 -11.3616C382.054 -26.9827 370.19 -43.0161 353.737 -42.6332L25.7306 -34.9983C13.4942 -34.7135 3.47004 -25.1919 2.55673 -12.9864L1.0348 7.35302Z" fill="#05B9BE"/>
</g>
<defs>
<clipPath id="clip0_68_5">
<rect width="373" height="100" fill="white"/>
</clipPath>
</defs>
</svg>
