<svg width="1280" height="412" viewBox="0 0 1280 412" fill="none" xmlns="http://www.w3.org/2000/svg">
<path d="M1446.16 583.801L1412.68 416.134C1411.08 408.099 1410.45 399.912 1410.81 391.754L1417.37 242.652C1419.35 197.644 1390.87 156.513 1348.13 142.675L1345.13 141.703C1329.42 136.616 1315.38 127.17 1304.65 114.456C1270.11 73.5518 1208.19 72.3149 1173.33 111.832L1155.53 132L1143.31 144.457C1118.59 169.67 1082.24 179.509 1047.86 170.294L1027.15 164.74C1006.54 159.213 988.853 145.606 978.061 126.968C960 95.7738 923.756 80.1979 889.382 88.8576L868.806 94.0413C838.165 101.761 805.706 89.2851 787.52 62.7988C763.557 27.8978 716.38 18.793 682.191 42.4711L626.173 81.2673C616.837 87.7327 609.056 96.2111 603.378 106.103L591.909 126.084C572.443 159.998 526.242 165.832 498.167 137.922C494.608 134.384 490.635 131.298 486.338 128.735L437.573 99.6452L380.849 70.4414C360.374 59.8996 337.037 56.7287 314.756 61.4608L295.295 65.5941C279.1 69.0338 264.198 76.8492 252.171 88.2109C221.916 116.794 176.048 120.905 140.493 98.2213L101.094 73.0854C90.4292 66.2814 81.133 57.4862 73.7144 47.1814L66.869 37.6729C36.8387 -4.04058 -21.692 -11.546 -59.9847 21.4063C-79.073 37.8326 -104.566 44.9097 -129.583 40.8226C-186.517 31.5211 -236.307 78.8559 -229.963 136.657L-203.967 373.495L-175.798 499.323L-142.166 610.968C-132.137 644.262 -105.889 670.257 -72.7195 679.746L91.5209 726.732C100.054 729.173 108.853 730.462 117.686 730.565L458.584 734.545L809.467 762.943L1167.12 757.829L1370.82 727.589C1428.17 719.074 1465.37 662.89 1451.49 605.74L1446.16 583.801Z" fill="url(#paint0_linear_176_2)" fill-opacity="0.3"/>
<path d="M-201.877 201.335C-203.686 152.337 -170.271 109.027 -122.418 98.3468C-83.3468 84.04 -39.5453 93.0506 -9.2942 121.618L-5.67546 125.035C1.4791 131.792 9.45186 137.625 18.0566 142.4L29.7201 148.871C62.9551 167.312 100.338 176.988 138.346 176.988H139.357C153.453 176.988 167.52 175.68 181.374 173.08L217.88 166.229C229.802 163.991 241.374 160.178 252.291 154.89L256.55 152.827C280.171 141.386 306.844 137.834 332.636 142.695C347.327 145.464 361.386 150.898 374.12 158.73L422.785 188.66C458.461 210.601 501.661 216.699 542.015 205.49L551.629 202.82C564.831 199.153 577.157 192.857 587.867 184.311L596.806 177.176C608.445 167.889 616.708 155.033 620.325 140.589C624.177 125.202 633.294 111.649 646.093 102.281L651.309 98.4633C670.96 84.0797 697.045 82.013 718.716 93.1227C725.457 96.5783 731.535 101.196 736.671 106.764L750.068 121.287C773.429 146.612 809.418 155.977 842.16 145.252C861.955 138.768 883.408 139.515 902.704 147.359L940.827 162.857L975.112 178.523C1002.14 190.872 1031.5 197.263 1061.21 197.263C1093.45 197.263 1125.25 189.738 1154.07 175.286L1178.86 162.857L1214.67 138.811C1236.05 124.448 1261.23 116.778 1286.99 116.778C1303.01 116.778 1318.9 119.746 1333.84 125.53L1340.08 127.948C1395.79 149.517 1435.56 199.422 1444.16 258.54L1462.02 381.424C1495.6 612.372 1314.07 818.329 1080.74 814.024L178.658 797.38C-22.6135 793.666 -185.918 633.351 -193.349 432.182L-201.877 201.335Z" fill="#3E8A8B"/>
<defs>
<linearGradient id="paint0_linear_176_2" x1="828.501" y1="-96.7645" x2="695.455" y2="614.312" gradientUnits="userSpaceOnUse">
<stop stop-color="#E1E1DE"/>
<stop offset="0.324486" stop-color="#EEBF1F"/>
<stop offset="0.451371" stop-color="#EDB600"/>
<stop offset="1" stop-color="#725901"/>
</linearGradient>
</defs>
</svg>
